<svg xmlns="http://www.w3.org/2000/svg" viewBox="0 0 448 512">
  <path fill="#FF9900" d="M257.2 162.7c-48.7 1.8-169.5 15.5-169.5 117.5 0 109.5 138.3 114 183.5 43.2 6.5 10.2 35.4 37.5 45.3 46.8l56.8-56S341 288.9 341 261.4V114.3C341 89 316.5 32 228.7 32 140.7 32 94 87 94 136.3l73.5 6.8c16.3-49.5 54.2-49.5 54.2-49.5 40.7-.1 35.5 29.8 35.5 69.1zm0 86.8c0 80-84.2 68-84.2 17.2 0-47.2 50.5-56.7 84.2-57.8v40.6zm136 163.5c-7.7 10-70 67-174.5 67S34.2 408.5 9.7 379c-6.8-7.7 1-11.3 5.5-8.3C88.5 415.2 203 488.5 387.7 401c7.5-3.7 13.3 2 5.5 12zm39.8 2.2c-18.5 8.5-31 0-36-18.5-17.2-62.5-7.7-98.8-3.8-135.5.2-13-9-15.2-14.5-6l-21.2 33.3c-5.7 9-16.8 10.5-24 7.5-7.8-3.2-12.7-10.3-12.7-18.8V383c-7.8 3.2-15.7 4-23 .8-70-32.3-132.5-56.3-212.2-21.8C35.5 328.5 32 318.3 32 307.2V172c0-9 7-17 16-17h333.5c9 0 16 8 16 17v89.5c0 8.5-4.8 15.6-12.5 18.8-7.8 3-18 1.5-23.5-7.5l-21.2-33.3c-5.5-9.2-14.7-7-14.5 6 .3 36.7 9.8 73 -3.5 135.5-3.2 15.5-15 22.5-34 14.2z"/>
</svg>
