<svg xmlns="http://www.w3.org/2000/svg" viewBox="0 0 448 512">
  <path fill="#95BF47" d="M388.32,104.1a4.54,4.54,0,0,0-4.4-4.1c-63,0-82.34,37.31-94.56,63.38-4.11-1.9-8.37-3.81-12.76-5.7C271.84,149,263,140.76,243.63,128.5c-15.57-9.85-34.79-22.06-59-42.83a4.54,4.54,0,0,0-7.44,3.52C176.5,97.26,172.15,141.3,186.47,175.5c7.33,17.5,17.41,30.74,29.43,40,12.72,9.88,26.75,15.32,41.38,17a80.92,80.92,0,0,0,23-1.3l6.82,15.59,20.28,46.27c-20,12.28-48.46,22.94-75.28,22.94-19.56,0-37.55-7.54-46.22-21.18-10.53-16.63-10.93-40.65-10.93-80.9V202.16L229,217.56c13.6-15.56,31.82-20.66,62-26.46L290.64,32C240.39,32,205.4,46.9,180,74.69c-20.55,22.5-35,53.13-42.85,90.46-35.92-6.95-74.8-10.56-94-12.45C18.75,150,6.12,146.86,6.12,133.33,6.12,125,9.46,106.35,25.48,90c5.93-6.06,15.88-6.91,22.11-1.52,6.66,5.82,9.6,13.86,8.43,23.14l43.85-18.9c3.39-21.44-2.92-41.77-18.1-55-15.79-13.78-36.2-15.9-56.56-6.06-18.3,8.86-34,26.46-44.31,48.86-10.75,23.28-15.38,51.58-1.08,79.48,25.09,48.78,90.25,53.28,138.52,57.38l4.9,1c-3.95,30.21-3.03,61.29,6.82,82.6C148.6,425.55,178.59,448,220.22,448c53,0,93-17.5,119.18-31l.12-.43L352,434.33c21.55-7.06,31.65-12.34,50.29-23.46a4.47,4.47,0,0,0,1.47-5.79l-60-137.16a4.45,4.45,0,0,0-4.12-2.63Z"/>
</svg>
